# Blender v2.79 (sub 0) OBJ File: ''
# www.blender.org
mtllib casa.mtl
o casafiliperama:pCube3.002
v -2.725496 0.321639 2.725496
v -1.635298 0.321639 2.725496
v -1.635298 0.428938 2.725496
v -2.725496 0.428938 2.725496
v -0.545099 0.321639 2.725496
v -0.545099 0.428938 2.725496
v 0.545099 0.321639 2.725496
v 0.545099 0.428938 2.725496
v 1.635298 0.321639 2.725496
v 1.635298 0.428938 2.725496
v 2.725496 0.321639 2.725496
v 2.725496 0.428938 2.725496
v -1.635298 1.527843 2.725496
v -2.725496 1.527843 2.725496
v -0.545099 1.527843 2.725496
v 0.545099 1.527843 2.725496
v 1.635298 1.527843 2.725496
v 2.725496 1.527843 2.725496
v -1.635298 2.779173 2.725496
v -2.725496 2.779173 2.725496
v -1.635298 1.527843 2.478348
v -0.545099 1.527843 2.478348
v -0.545099 2.779173 2.478348
v -1.635298 2.779173 2.478348
v 0.545099 1.527843 2.478348
v 0.545099 2.779173 2.478348
v 1.635298 1.527843 2.478348
v 1.635298 2.779173 2.478348
v 2.725496 2.779173 2.725496
v 1.635298 2.779173 2.725496
v -1.635298 3.276382 2.725496
v -2.725496 3.276382 2.725496
v -0.545099 2.779173 2.725496
v -0.545099 3.276382 2.725496
v 0.545099 2.779173 2.725496
v 0.545099 3.276382 2.725496
v 1.635298 3.276382 2.725496
v 2.725496 3.276382 2.725496
v -1.635298 4.015069 2.725496
v -2.725496 4.015069 2.725496
v -0.545099 4.015069 2.725496
v 0.545099 4.015069 2.725496
v 1.635298 4.015069 2.725496
v 2.725496 4.015069 2.725496
v -1.635298 4.015069 1.635298
v -2.725496 4.015069 1.635298
v -0.545099 4.015069 1.635298
v 0.545099 4.015069 1.635298
v 1.635298 4.015069 1.635298
v 2.725496 4.015069 1.635298
v -1.635298 4.015069 0.545099
v -2.725496 4.015069 0.545099
v -0.545099 4.015069 0.545099
v 0.545099 4.015069 0.545099
v 1.635298 4.015069 0.545099
v 2.725496 4.015069 0.545099
v -1.635298 4.015069 -0.545099
v -2.725496 4.015069 -0.545099
v -0.545099 4.015069 -0.545099
v 0.545099 4.015069 -0.545099
v 1.635298 4.015069 -0.545099
v 2.725496 4.015069 -0.545099
v -1.635298 4.015069 -1.635298
v -2.725496 4.015069 -1.635298
v -0.545099 4.015069 -1.635298
v 0.545099 4.015069 -1.635298
v 1.635298 4.015069 -1.635298
v 2.725496 4.015069 -1.635298
v -1.635298 4.015069 -2.725496
v -2.725496 4.015069 -2.725496
v -0.545099 4.015069 -2.725496
v 0.545099 4.015069 -2.725496
v 1.635298 4.015069 -2.725496
v 2.725496 4.015069 -2.725496
v -1.635298 3.276382 -2.725496
v -2.725496 3.276382 -2.725496
v -0.545099 3.276382 -2.725496
v 0.545099 3.276382 -2.725496
v 1.635298 3.276382 -2.725496
v 2.725496 3.276382 -2.725496
v -1.635298 2.779173 -2.725496
v -2.725496 2.779173 -2.725496
v -0.545099 2.779173 -2.725496
v 0.545099 2.779173 -2.725496
v 1.635298 2.779173 -2.725496
v 2.725496 2.779173 -2.725496
v -1.635298 1.527843 -2.725496
v -2.725496 1.527843 -2.725496
v -1.635298 2.779173 -2.467572
v -0.545099 2.779173 -2.467572
v -0.545099 1.527843 -2.467572
v -1.635298 1.527843 -2.467572
v 0.545099 2.779173 -2.467572
v 0.545099 1.527843 -2.467572
v 1.635298 2.779173 -2.467572
v 1.635298 1.527843 -2.467572
v 2.725496 1.527843 -2.725496
v 1.635298 1.527843 -2.725496
v -1.635298 0.428938 -2.725496
v -2.725496 0.428938 -2.725496
v -0.545099 1.527843 -2.725496
v -0.545099 0.428938 -2.725496
v 0.545099 1.527843 -2.725496
v 0.545099 0.428938 -2.725496
v 1.635298 0.428938 -2.725496
v 2.725496 0.428938 -2.725496
v -1.635298 0.321639 -2.725496
v -2.725496 0.321639 -2.725496
v -0.545099 0.321639 -2.725496
v 0.545099 0.321639 -2.725496
v 1.635298 0.321639 -2.725496
v 2.725496 0.321639 -2.725496
v -1.635298 0.321639 -1.635298
v -2.725496 0.321639 -1.635298
v -0.545099 0.321639 -1.635298
v 0.545099 0.321639 -1.635298
v 1.635298 0.321639 -1.635298
v 2.725496 0.321639 -1.635298
v -1.635298 0.321639 -0.545099
v -2.725496 0.321639 -0.545099
v -0.545099 0.321639 -0.545099
v 0.545099 0.321639 -0.545099
v 1.635298 0.321639 -0.545099
v 1.635298 0.321639 -1.635298
v 2.725496 0.321639 -1.635298
v 2.725496 0.321639 -0.545099
v 1.635298 0.321639 -0.545099
v -1.635298 0.321639 0.545099
v -2.725496 0.321639 0.545099
v -1.635298 0.321639 -0.545099
v -0.545099 0.321639 -0.545099
v -0.545099 0.321639 0.545099
v -1.635298 0.321639 0.545099
v 0.545099 0.321639 0.545099
v -0.545099 0.321639 0.545099
v 1.635298 0.321639 0.545099
v 2.725496 0.321639 -0.545099
v 2.725496 0.321639 0.545099
v -1.635298 0.321639 1.635298
v -2.725496 0.321639 1.635298
v -0.545099 0.321639 1.635298
v 0.545099 0.321639 1.635298
v 1.635298 0.321639 1.635298
v 2.725496 0.321639 1.635298
v 2.725496 0.428938 -1.635298
v 2.725496 0.428938 -0.545099
v 2.725496 0.428938 0.545099
v 2.725496 0.428938 1.635298
v 2.725496 1.527843 -1.635298
v 2.493352 0.428938 -0.545099
v 2.493352 0.428938 -1.635298
v 2.493352 1.527843 -1.635298
v 2.493352 1.527843 -0.545099
v 2.493352 0.428938 0.545099
v 2.493352 1.527843 0.545099
v 2.493352 0.428938 1.635298
v 2.493352 1.527843 1.635298
v 2.725496 1.527843 1.635298
v 2.725496 2.779173 -1.635298
v 2.493352 2.779173 -1.635298
v 2.493352 2.779173 -0.545099
v 2.493352 2.779173 0.545099
v 2.493352 2.779173 1.635298
v 2.725496 2.779173 1.635298
v 2.725496 3.276382 -1.635298
v 2.725496 2.779173 -0.545099
v 2.725496 3.276382 -0.545099
v 2.725496 2.779173 0.545099
v 2.725496 3.276382 0.545099
v 2.725496 3.276382 1.635298
v -2.725496 0.428938 -1.635298
v -2.725496 0.428938 -0.545099
v -2.725496 0.428938 0.545099
v -2.725496 0.428938 1.635298
v -2.725496 1.527843 -1.635298
v -2.725496 1.527843 -0.545099
v -2.725496 1.527843 0.545099
v -2.725496 1.527843 1.635298
v -2.725496 2.779173 -1.635298
v -2.488916 1.527843 -1.635298
v -2.488916 1.527843 -0.545099
v -2.488916 2.779173 -0.545099
v -2.488916 2.779173 -1.635298
v -2.488916 1.527843 0.545099
v -2.488916 2.779173 0.545099
v -2.488916 1.527843 1.635298
v -2.488916 2.779173 1.635298
v -2.725496 2.779173 1.635298
v -2.725496 3.276382 -1.635298
v -2.725496 2.779173 -0.545099
v -2.725496 3.276382 -0.545099
v -2.725496 2.779173 0.545099
v -2.725496 3.276382 0.545099
v -2.725496 3.276382 1.635298
v -3.248236 3.951732 3.248236
v 3.248236 3.951732 3.248236
v 3.248236 4.106449 3.248236
v -3.248236 4.106449 3.248236
v -3.248236 4.106449 -3.248236
v 0.000000 6.676505 0.000000
v 3.248236 4.106449 -3.248236
v 3.248236 3.951732 -3.248236
v -3.248236 3.951732 -3.248236
vt 0.802027 0.639811
vt 0.802027 0.581963
vt 0.807720 0.581963
vt 0.807720 0.639811
vt 0.802027 0.524115
vt 0.807720 0.524115
vt 0.802027 0.466267
vt 0.807720 0.466267
vt 0.802027 0.408419
vt 0.807720 0.408419
vt 0.802027 0.350570
vt 0.807720 0.350570
vt 0.866031 0.581963
vt 0.866031 0.639811
vt 0.866031 0.524115
vt 0.866031 0.466267
vt 0.866031 0.408419
vt 0.866031 0.350570
vt 0.932429 0.581963
vt 0.932429 0.639811
vt 0.407569 0.817347
vt 0.407569 0.759499
vt 0.473967 0.759499
vt 0.473967 0.817347
vt 0.407569 0.701651
vt 0.473967 0.701651
vt 0.407569 0.643803
vt 0.473967 0.643803
vt 0.932429 0.350570
vt 0.932429 0.408419
vt 0.958812 0.581963
vt 0.958812 0.639811
vt 0.932429 0.524115
vt 0.958812 0.524115
vt 0.932429 0.466267
vt 0.958812 0.466267
vt 0.958812 0.408419
vt 0.958812 0.350570
vt 0.998008 0.581963
vt 0.998008 0.639811
vt 0.998008 0.524115
vt 0.998008 0.466267
vt 0.998008 0.408419
vt 0.998008 0.350570
vt 0.506651 0.350570
vt 0.564499 0.350570
vt 0.564499 0.408419
vt 0.506651 0.408419
vt 0.622347 0.350570
vt 0.622347 0.408419
vt 0.680195 0.350570
vt 0.680195 0.408419
vt 0.738043 0.350570
vt 0.738043 0.408419
vt 0.795892 0.350570
vt 0.795892 0.408419
vt 0.564499 0.466267
vt 0.506651 0.466267
vt 0.622347 0.466267
vt 0.680195 0.466267
vt 0.738043 0.466267
vt 0.795892 0.466267
vt 0.564499 0.524115
vt 0.506651 0.524115
vt 0.622347 0.524115
vt 0.680195 0.524115
vt 0.738043 0.524115
vt 0.795892 0.524115
vt 0.564499 0.581963
vt 0.506651 0.581963
vt 0.622347 0.581963
vt 0.680195 0.581963
vt 0.738043 0.581963
vt 0.795892 0.581963
vt 0.564499 0.639811
vt 0.506651 0.639811
vt 0.622347 0.639811
vt 0.680195 0.639811
vt 0.738043 0.639811
vt 0.795892 0.639811
vt 0.304534 0.639811
vt 0.304534 0.581963
vt 0.343731 0.581963
vt 0.343731 0.639811
vt 0.304534 0.524115
vt 0.343731 0.524115
vt 0.304534 0.466267
vt 0.343731 0.466267
vt 0.304534 0.408418
vt 0.343731 0.408418
vt 0.304534 0.350570
vt 0.343731 0.350570
vt 0.370113 0.581963
vt 0.370113 0.639811
vt 0.370113 0.524115
vt 0.370113 0.466267
vt 0.370113 0.408418
vt 0.370113 0.350570
vt 0.436512 0.581963
vt 0.436512 0.639811
vt 0.481629 0.817347
vt 0.481629 0.759499
vt 0.548027 0.759499
vt 0.548027 0.817347
vt 0.481629 0.701651
vt 0.548027 0.701651
vt 0.481629 0.643803
vt 0.548027 0.643803
vt 0.436512 0.350570
vt 0.436512 0.408418
vt 0.494822 0.581963
vt 0.494822 0.639811
vt 0.436512 0.524115
vt 0.494822 0.524115
vt 0.436512 0.466267
vt 0.494822 0.466267
vt 0.494822 0.408418
vt 0.494822 0.350570
vt 0.500515 0.581963
vt 0.500515 0.639811
vt 0.500515 0.524115
vt 0.500515 0.466267
vt 0.500515 0.408418
vt 0.500515 0.350570
vt 0.009158 0.350570
vt 0.067006 0.350570
vt 0.067006 0.408418
vt 0.009158 0.408418
vt 0.124854 0.350570
vt 0.124854 0.408418
vt 0.182703 0.350570
vt 0.182703 0.408418
vt 0.240551 0.350570
vt 0.240551 0.408418
vt 0.298399 0.350570
vt 0.298399 0.408418
vt 0.067006 0.466267
vt 0.009158 0.466267
vt 0.124854 0.466267
vt 0.182703 0.466267
vt 0.240551 0.466267
vt 0.863140 0.821339
vt 0.920988 0.821339
vt 0.920988 0.879187
vt 0.863140 0.879187
vt 0.067006 0.524115
vt 0.009158 0.524115
vt 0.799156 0.879187
vt 0.799156 0.821339
vt 0.857004 0.821339
vt 0.857004 0.879187
vt 0.182703 0.524115
vt 0.124854 0.524115
vt 0.240551 0.524115
vt 0.298399 0.466267
vt 0.298399 0.524115
vt 0.067006 0.581963
vt 0.009158 0.581963
vt 0.124854 0.581963
vt 0.182703 0.581963
vt 0.240551 0.581963
vt 0.298399 0.581963
vt 0.067006 0.639811
vt 0.009158 0.639811
vt 0.124854 0.639811
vt 0.182703 0.639811
vt 0.240551 0.639811
vt 0.298399 0.639811
vt 0.001992 0.701651
vt 0.001992 0.643803
vt 0.007685 0.643803
vt 0.007685 0.701651
vt 0.001992 0.759499
vt 0.007685 0.759499
vt 0.001992 0.817347
vt 0.007685 0.817347
vt 0.001992 0.875196
vt 0.007685 0.875196
vt 0.001992 0.933044
vt 0.007685 0.933044
vt 0.065996 0.643803
vt 0.065996 0.701651
vt 0.555689 0.701651
vt 0.555689 0.643803
vt 0.614000 0.643803
vt 0.614000 0.701651
vt 0.555689 0.759499
vt 0.614000 0.759499
vt 0.555689 0.817347
vt 0.614000 0.817347
vt 0.065996 0.875196
vt 0.065996 0.933044
vt 0.132394 0.643803
vt 0.132394 0.701651
vt 0.680398 0.643803
vt 0.680398 0.701651
vt 0.680398 0.759499
vt 0.680398 0.817347
vt 0.132394 0.875196
vt 0.132394 0.933044
vt 0.158777 0.643803
vt 0.158777 0.701651
vt 0.132394 0.759499
vt 0.158777 0.759499
vt 0.132394 0.817347
vt 0.158777 0.817347
vt 0.158777 0.875196
vt 0.158777 0.933044
vt 0.197973 0.643803
vt 0.197973 0.701651
vt 0.197973 0.759499
vt 0.197973 0.817347
vt 0.197973 0.875196
vt 0.197973 0.933044
vt 0.204878 0.933044
vt 0.204878 0.875196
vt 0.210571 0.875196
vt 0.210571 0.933044
vt 0.204878 0.817347
vt 0.210571 0.817347
vt 0.204878 0.759499
vt 0.210571 0.759499
vt 0.204878 0.701651
vt 0.210571 0.701651
vt 0.204878 0.643803
vt 0.210571 0.643803
vt 0.268882 0.875196
vt 0.268882 0.933044
vt 0.268882 0.817347
vt 0.268882 0.759499
vt 0.268882 0.701651
vt 0.268882 0.643803
vt 0.335280 0.875196
vt 0.335280 0.933044
vt 0.688218 0.817347
vt 0.688218 0.759499
vt 0.754616 0.759499
vt 0.754616 0.817347
vt 0.688218 0.701651
vt 0.754616 0.701651
vt 0.688218 0.643803
vt 0.754616 0.643803
vt 0.335280 0.643803
vt 0.335280 0.701651
vt 0.361663 0.875196
vt 0.361663 0.933044
vt 0.335280 0.817347
vt 0.361663 0.817347
vt 0.335280 0.759499
vt 0.361663 0.759499
vt 0.361663 0.701651
vt 0.361663 0.643803
vt 0.400859 0.875196
vt 0.400859 0.933044
vt 0.400859 0.817347
vt 0.400859 0.759499
vt 0.400859 0.701651
vt 0.400859 0.643803
vt 0.763423 0.821339
vt 0.793021 0.821339
vt 0.793021 0.821339
vt 0.763423 0.821339
vt 0.793021 0.850936
vt 0.793021 0.850936
vt 0.763423 0.850936
vt 0.763423 0.850936
vt 0.727691 0.850936
vt 0.727691 0.821339
vt 0.727691 0.821339
vt 0.727691 0.850936
vt 0.757288 0.821339
vt 0.757288 0.821339
vt 0.757288 0.850936
vt 0.757288 0.850936
vt 0.774596 0.759499
vt 0.774596 0.817347
vt 0.762278 0.817347
vt 0.762278 0.759499
vt 0.934411 0.643803
vt 0.934411 0.702113
vt 0.922092 0.702113
vt 0.922092 0.643803
vt 0.774596 0.701651
vt 0.762278 0.701651
vt 0.774596 0.643803
vt 0.762278 0.643803
vt 0.953900 0.710201
vt 0.953900 0.768511
vt 0.941582 0.768511
vt 0.941582 0.710201
vt 0.934411 0.768511
vt 0.922092 0.768511
vt 0.794086 0.643803
vt 0.794086 0.701651
vt 0.781768 0.701651
vt 0.781768 0.643803
vt 0.794086 0.759499
vt 0.781768 0.759499
vt 0.794086 0.817347
vt 0.781768 0.817347
vt 0.953900 0.643803
vt 0.941582 0.643803
vt 0.801257 0.817347
vt 0.801257 0.759499
vt 0.814372 0.759499
vt 0.814372 0.817347
vt 0.833861 0.759499
vt 0.833861 0.817347
vt 0.820747 0.817347
vt 0.820747 0.759499
vt 0.961072 0.710201
vt 0.961072 0.643803
vt 0.974186 0.643803
vt 0.974186 0.710201
vt 0.801257 0.701651
vt 0.814372 0.701651
vt 0.833861 0.701651
vt 0.820747 0.701651
vt 0.801257 0.643803
vt 0.814372 0.643803
vt 0.993675 0.643803
vt 0.993675 0.710201
vt 0.980561 0.710201
vt 0.980561 0.643803
vt 0.833861 0.643803
vt 0.820747 0.643803
vt 0.840237 0.817347
vt 0.840237 0.759499
vt 0.852790 0.759499
vt 0.852790 0.817347
vt 0.859726 0.701651
vt 0.859726 0.643803
vt 0.872280 0.643803
vt 0.872280 0.701651
vt 0.985455 0.780591
vt 0.985455 0.714192
vt 0.998008 0.714192
vt 0.998008 0.780591
vt 0.840237 0.701651
vt 0.852790 0.701651
vt 0.859726 0.759499
vt 0.872280 0.759499
vt 0.840237 0.643803
vt 0.852790 0.643803
vt 0.966766 0.780591
vt 0.966766 0.714192
vt 0.979319 0.714192
vt 0.979319 0.780591
vt 0.859726 0.817347
vt 0.872280 0.817347
vt 0.879216 0.817347
vt 0.879216 0.759499
vt 0.892902 0.759499
vt 0.892902 0.817347
vt 0.914340 0.759499
vt 0.914340 0.817347
vt 0.900654 0.817347
vt 0.900654 0.759499
vt 0.960630 0.772503
vt 0.960630 0.838901
vt 0.946944 0.838901
vt 0.946944 0.772503
vt 0.879216 0.701651
vt 0.892902 0.701651
vt 0.914340 0.701651
vt 0.900654 0.701651
vt 0.879216 0.643803
vt 0.892902 0.643803
vt 0.927123 0.838901
vt 0.927123 0.772503
vt 0.940809 0.772503
vt 0.940809 0.838901
vt 0.914340 0.643803
vt 0.900654 0.643803
vt 0.001992 0.346579
vt 0.001992 0.001862
vt 0.010202 0.001862
vt 0.010202 0.346579
vt 0.290578 0.346579
vt 0.154205 0.174221
vt 0.290578 0.001862
vt 0.298787 0.001862
vt 0.298787 0.346579
vt 0.306224 0.001862
vt 0.650940 0.001862
vt 0.650940 0.346579
vt 0.306224 0.346579
vt 0.658984 0.346579
vt 0.658984 0.001862
vt 0.667194 0.001862
vt 0.667194 0.346579
vt 0.811002 0.346579
vt 0.811002 0.001862
vt 0.819212 0.001862
vt 0.819212 0.346579
vt 0.955584 0.174221
vt 0.146574 0.174221
vt 0.803566 0.174221
vn 0.0000 0.0000 1.0000
vn 0.0000 1.0000 0.0000
vn 0.0000 0.0000 -1.0000
vn 0.0000 -1.0000 -0.0000
vn 1.0000 0.0000 0.0000
vn -1.0000 0.0000 0.0000
vn 0.0000 0.0000 0.0000
vn -0.3452 0.8727 -0.3452
vn 0.3452 0.8727 -0.3452
vn -0.3452 0.8727 0.3452
vn 0.3452 0.8727 0.3452
usemtl Material.004
s 1
f 1/1/1 2/2/1 3/3/1 4/4/1
f 2/2/1 5/5/1 6/6/1 3/3/1
f 5/5/1 7/7/1 8/8/1 6/6/1
f 7/7/1 9/9/1 10/10/1 8/8/1
f 9/9/1 11/11/1 12/12/1 10/10/1
f 4/4/1 3/3/1 13/13/1 14/14/1
f 3/3/1 6/6/1 15/15/1 13/13/1
f 6/6/1 8/8/1 16/16/1 15/15/1
f 8/8/1 10/10/1 17/17/1 16/16/1
f 10/10/1 12/12/1 18/18/1 17/17/1
f 14/14/1 13/13/1 19/19/1 20/20/1
f 21/21/1 22/22/1 23/23/1 24/24/1
f 22/22/1 25/25/1 26/26/1 23/23/1
f 25/25/1 27/27/1 28/28/1 26/26/1
f 17/17/1 18/18/1 29/29/1 30/30/1
f 20/20/1 19/19/1 31/31/1 32/32/1
f 19/19/1 33/33/1 34/34/1 31/31/1
f 33/33/1 35/35/1 36/36/1 34/34/1
f 35/35/1 30/30/1 37/37/1 36/36/1
f 30/30/1 29/29/1 38/38/1 37/37/1
f 32/32/1 31/31/1 39/39/1 40/40/1
f 31/31/1 34/34/1 41/41/1 39/39/1
f 34/34/1 36/36/1 42/42/1 41/41/1
f 36/36/1 37/37/1 43/43/1 42/42/1
f 37/37/1 38/38/1 44/44/1 43/43/1
f 40/45/2 39/46/2 45/47/2 46/48/2
f 39/46/2 41/49/2 47/50/2 45/47/2
f 41/49/2 42/51/2 48/52/2 47/50/2
f 42/51/2 43/53/2 49/54/2 48/52/2
f 43/53/2 44/55/2 50/56/2 49/54/2
f 46/48/2 45/47/2 51/57/2 52/58/2
f 45/47/2 47/50/2 53/59/2 51/57/2
f 47/50/2 48/52/2 54/60/2 53/59/2
f 48/52/2 49/54/2 55/61/2 54/60/2
f 49/54/2 50/56/2 56/62/2 55/61/2
f 52/58/2 51/57/2 57/63/2 58/64/2
f 51/57/2 53/59/2 59/65/2 57/63/2
f 53/59/2 54/60/2 60/66/2 59/65/2
f 54/60/2 55/61/2 61/67/2 60/66/2
f 55/61/2 56/62/2 62/68/2 61/67/2
f 58/64/2 57/63/2 63/69/2 64/70/2
f 57/63/2 59/65/2 65/71/2 63/69/2
f 59/65/2 60/66/2 66/72/2 65/71/2
f 60/66/2 61/67/2 67/73/2 66/72/2
f 61/67/2 62/68/2 68/74/2 67/73/2
f 64/70/2 63/69/2 69/75/2 70/76/2
f 63/69/2 65/71/2 71/77/2 69/75/2
f 65/71/2 66/72/2 72/78/2 71/77/2
f 66/72/2 67/73/2 73/79/2 72/78/2
f 67/73/2 68/74/2 74/80/2 73/79/2
f 70/81/3 69/82/3 75/83/3 76/84/3
f 69/82/3 71/85/3 77/86/3 75/83/3
f 71/85/3 72/87/3 78/88/3 77/86/3
f 72/87/3 73/89/3 79/90/3 78/88/3
f 73/89/3 74/91/3 80/92/3 79/90/3
f 76/84/3 75/83/3 81/93/3 82/94/3
f 75/83/3 77/86/3 83/95/3 81/93/3
f 77/86/3 78/88/3 84/96/3 83/95/3
f 78/88/3 79/90/3 85/97/3 84/96/3
f 79/90/3 80/92/3 86/98/3 85/97/3
f 82/94/3 81/93/3 87/99/3 88/100/3
f 89/101/3 90/102/3 91/103/3 92/104/3
f 90/102/3 93/105/3 94/106/3 91/103/3
f 93/105/3 95/107/3 96/108/3 94/106/3
f 85/97/3 86/98/3 97/109/3 98/110/3
f 88/100/3 87/99/3 99/111/3 100/112/3
f 87/99/3 101/113/3 102/114/3 99/111/3
f 101/113/3 103/115/3 104/116/3 102/114/3
f 103/115/3 98/110/3 105/117/3 104/116/3
f 98/110/3 97/109/3 106/118/3 105/117/3
f 100/112/3 99/111/3 107/119/3 108/120/3
f 99/111/3 102/114/3 109/121/3 107/119/3
f 102/114/3 104/116/3 110/122/3 109/121/3
f 104/116/3 105/117/3 111/123/3 110/122/3
f 105/117/3 106/118/3 112/124/3 111/123/3
f 108/125/4 107/126/4 113/127/4 114/128/4
f 107/126/4 109/129/4 115/130/4 113/127/4
f 109/129/4 110/131/4 116/132/4 115/130/4
f 110/131/4 111/133/4 117/134/4 116/132/4
f 111/133/4 112/135/4 118/136/4 117/134/4
f 114/128/4 113/127/4 119/137/4 120/138/4
f 113/127/4 115/130/4 121/139/4 119/137/4
f 115/130/4 116/132/4 122/140/4 121/139/4
f 116/132/4 117/134/4 123/141/4 122/140/4
f 124/142/4 125/143/4 126/144/4 127/145/4
f 120/138/4 119/137/4 128/146/4 129/147/4
f 130/148/4 131/149/4 132/150/4 133/151/4
f 121/139/4 122/140/4 134/152/4 135/153/4
f 122/140/4 123/141/4 136/154/4 134/152/4
f 123/141/4 137/155/4 138/156/4 136/154/4
f 129/147/4 128/146/4 139/157/4 140/158/4
f 128/146/4 135/153/4 141/159/4 139/157/4
f 135/153/4 134/152/4 142/160/4 141/159/4
f 134/152/4 136/154/4 143/161/4 142/160/4
f 136/154/4 138/156/4 144/162/4 143/161/4
f 140/158/4 139/157/4 2/163/4 1/164/4
f 139/157/4 141/159/4 5/165/4 2/163/4
f 141/159/4 142/160/4 7/166/4 5/165/4
f 142/160/4 143/161/4 9/167/4 7/166/4
f 143/161/4 144/162/4 11/168/4 9/167/4
f 118/169/5 112/170/5 106/171/5 145/172/5
f 137/173/5 118/169/5 145/172/5 146/174/5
f 138/175/5 137/173/5 146/174/5 147/176/5
f 144/177/5 138/175/5 147/176/5 148/178/5
f 11/179/5 144/177/5 148/178/5 12/180/5
f 145/172/5 106/171/5 97/181/5 149/182/5
f 150/183/5 151/184/5 152/185/5 153/186/5
f 154/187/5 150/183/5 153/186/5 155/188/5
f 156/189/5 154/187/5 155/188/5 157/190/5
f 12/180/5 148/178/5 158/191/5 18/192/5
f 149/182/5 97/181/5 86/193/5 159/194/5
f 153/186/5 152/185/5 160/195/5 161/196/5
f 155/188/5 153/186/5 161/196/5 162/197/5
f 157/190/5 155/188/5 162/197/5 163/198/5
f 18/192/5 158/191/5 164/199/5 29/200/5
f 159/194/5 86/193/5 80/201/5 165/202/5
f 166/203/5 159/194/5 165/202/5 167/204/5
f 168/205/5 166/203/5 167/204/5 169/206/5
f 164/199/5 168/205/5 169/206/5 170/207/5
f 29/200/5 164/199/5 170/207/5 38/208/5
f 165/202/5 80/201/5 74/209/5 68/210/5
f 167/204/5 165/202/5 68/210/5 62/211/5
f 169/206/5 167/204/5 62/211/5 56/212/5
f 170/207/5 169/206/5 56/212/5 50/213/5
f 38/208/5 170/207/5 50/213/5 44/214/5
f 108/215/6 114/216/6 171/217/6 100/218/6
f 114/216/6 120/219/6 172/220/6 171/217/6
f 120/219/6 129/221/6 173/222/6 172/220/6
f 129/221/6 140/223/6 174/224/6 173/222/6
f 140/223/6 1/225/6 4/226/6 174/224/6
f 100/218/6 171/217/6 175/227/6 88/228/6
f 171/217/6 172/220/6 176/229/6 175/227/6
f 172/220/6 173/222/6 177/230/6 176/229/6
f 173/222/6 174/224/6 178/231/6 177/230/6
f 174/224/6 4/226/6 14/232/6 178/231/6
f 88/228/6 175/227/6 179/233/6 82/234/6
f 180/235/6 181/236/6 182/237/6 183/238/6
f 181/236/6 184/239/6 185/240/6 182/237/6
f 184/239/6 186/241/6 187/242/6 185/240/6
f 178/231/6 14/232/6 20/243/6 188/244/6
f 82/234/6 179/233/6 189/245/6 76/246/6
f 179/233/6 190/247/6 191/248/6 189/245/6
f 190/247/6 192/249/6 193/250/6 191/248/6
f 192/249/6 188/244/6 194/251/6 193/250/6
f 188/244/6 20/243/6 32/252/6 194/251/6
f 76/246/6 189/245/6 64/253/6 70/254/6
f 189/245/6 191/248/6 58/255/6 64/253/6
f 191/248/6 193/250/6 52/256/6 58/255/6
f 193/250/6 194/251/6 46/257/6 52/256/6
f 194/251/6 32/252/6 40/258/6 46/257/6
f 117/259/7 118/260/7 125/261/7 124/262/7
f 118/260/7 137/263/7 126/264/7 125/261/7
f 137/263/7 123/265/7 127/266/7 126/264/7
f 123/265/7 117/259/7 124/262/7 127/266/7
f 119/267/7 121/268/7 131/269/7 130/270/7
f 121/268/7 135/271/7 132/272/7 131/269/7
f 135/271/7 128/273/7 133/274/7 132/272/7
f 128/273/7 119/267/7 130/270/7 133/274/7
f 146/275/2 145/276/2 151/277/2 150/278/2
f 145/279/1 149/280/1 152/281/1 151/282/1
f 147/283/2 146/275/2 150/278/2 154/284/2
f 148/285/2 147/283/2 154/284/2 156/286/2
f 158/287/3 148/288/3 156/289/3 157/290/3
f 149/280/1 159/291/1 160/292/1 152/281/1
f 159/293/4 166/294/4 161/295/4 160/296/4
f 166/294/4 168/297/4 162/298/4 161/295/4
f 168/297/4 164/299/4 163/300/4 162/298/4
f 164/301/3 158/287/3 157/290/3 163/302/3
f 13/303/2 15/304/2 22/305/2 21/306/2
f 33/307/4 19/308/4 24/309/4 23/310/4
f 19/311/5 13/312/5 21/313/5 24/314/5
f 15/304/2 16/315/2 25/316/2 22/305/2
f 35/317/4 33/307/4 23/310/4 26/318/4
f 16/315/2 17/319/2 27/320/2 25/316/2
f 17/321/6 30/322/6 28/323/6 27/324/6
f 30/325/4 35/317/4 26/318/4 28/326/4
f 175/327/2 176/328/2 181/329/2 180/330/2
f 190/331/4 179/332/4 183/333/4 182/334/4
f 179/335/1 175/336/1 180/337/1 183/338/1
f 176/328/2 177/339/2 184/340/2 181/329/2
f 192/341/4 190/331/4 182/334/4 185/342/4
f 177/339/2 178/343/2 186/344/2 184/340/2
f 178/345/3 188/346/3 187/347/3 186/348/3
f 188/349/4 192/341/4 185/342/4 187/350/4
f 81/351/4 83/352/4 90/353/4 89/354/4
f 101/355/2 87/356/2 92/357/2 91/358/2
f 87/359/5 81/360/5 89/361/5 92/362/5
f 83/352/4 84/363/4 93/364/4 90/353/4
f 103/365/2 101/355/2 91/358/2 94/366/2
f 84/363/4 85/367/4 95/368/4 93/364/4
f 85/369/6 98/370/6 96/371/6 95/372/6
f 98/373/2 103/365/2 94/366/2 96/374/2
f 195/375/1 196/376/1 197/377/1 198/378/1
f 199/379/8 200/380/2 201/381/9
f 199/379/3 201/381/3 202/382/3 203/383/3
f 203/384/4 202/385/4 196/386/4 195/387/4
f 196/388/5 202/389/5 201/390/5 197/391/5
f 203/392/6 195/393/6 198/394/6 199/395/6
f 198/394/10 200/396/2 199/395/8
f 198/378/10 197/377/11 200/397/2
f 201/390/9 200/398/2 197/391/11
