# Blender v2.79 (sub 0) OBJ File: 'lugar.blend'
# www.blender.org
mtllib floor.mtl
o Plane.003_Plane.000
v 28.159201 -2.468179 -25.073753
v 28.159201 -2.468179 -25.483753
v 20.929201 -2.468179 -25.483753
v 20.929201 -2.468179 -25.073753
vn 0.0000 1.0000 0.0000
usemtl Material.033
s 1
f 1//1 2//1 3//1 4//1
o Plane.000_Plane.002
v 28.159197 -2.468179 -20.851641
v 28.159197 -2.468179 -21.261641
v 20.929197 -2.468179 -21.261641
v 20.929197 -2.468179 -20.851641
vn 0.0000 1.0000 0.0000
usemtl Material.033
s 1
f 5//2 6//2 7//2 8//2
o Plane.002_Plane.003
v 28.159201 -2.468179 -16.629419
v 28.159201 -2.468179 -17.039419
v 20.929201 -2.468179 -17.039419
v 20.929201 -2.468179 -16.629419
vn 0.0000 1.0000 0.0000
usemtl Material.033
s 1
f 9//3 10//3 11//3 12//3
o Plane.004_Plane.005
v 14.446850 -2.468179 -24.893799
v 14.446850 -2.468179 -25.303799
v 7.216850 -2.468179 -25.303799
v 7.216850 -2.468179 -24.893799
vn 0.0000 1.0000 0.0000
usemtl Material.033
s 1
f 13//4 14//4 15//4 16//4
o Plane.005_Plane.006
v 14.782050 -2.468179 -20.851601
v 14.782050 -2.468179 -21.261600
v 7.552051 -2.468179 -21.261600
v 7.552051 -2.468179 -20.851601
vn 0.0000 1.0000 0.0000
usemtl Material.033
s 1
f 17//5 18//5 19//5 20//5
o Plane.006_Plane.007
v 15.089811 -2.468180 -16.629400
v 15.089811 -2.468180 -17.039400
v 7.859812 -2.468180 -17.039400
v 7.859812 -2.468180 -16.629400
vn 0.0000 1.0000 0.0000
usemtl Material.028
s 1
f 21//6 22//6 23//6 24//6
o Plane.005_Plane.006
v 15.152050 -2.468180 -20.851601
v 15.152050 -2.468180 -21.261600
v 7.922050 -2.468180 -21.261600
v 7.922050 -2.468180 -20.851601
vn 0.0000 1.0000 0.0000
usemtl Material.028
s 1
f 25//7 26//7 27//7 28//7
o Plane.004_Plane.005
v 15.036850 -2.468180 -24.893799
v 15.036850 -2.468180 -25.303799
v 7.806850 -2.468180 -25.303799
v 7.806850 -2.468180 -24.893799
vn 0.0000 1.0000 0.0000
usemtl Material.028
s 1
f 29//8 30//8 31//8 32//8
o Plane.002_Plane.003
v 28.159201 -2.468180 -16.629400
v 28.159201 -2.468180 -17.039400
v 20.929201 -2.468180 -17.039400
v 20.929201 -2.468180 -16.629400
vn 0.0000 1.0000 0.0000
usemtl Material.028
s 1
f 33//9 34//9 35//9 36//9
o Plane.000_Plane.002
v 28.159197 -2.468180 -20.851641
v 28.159197 -2.468180 -21.261641
v 20.929197 -2.468180 -21.261641
v 20.929197 -2.468180 -20.851641
vn 0.0000 1.0000 0.0000
usemtl Material.028
s 1
f 37//10 38//10 39//10 40//10
o Plane.001
v 28.159201 -2.468180 -25.073753
v 28.159201 -2.468180 -25.483753
v 20.929201 -2.468180 -25.483753
v 20.929201 -2.468180 -25.073753
vn 0.0000 1.0000 0.0000
usemtl Material.028
s 1
f 41//11 42//11 43//11 44//11
o Cube.001
v 29.154917 -3.087266 -29.485636
v 29.154917 -3.087269 30.514341
v -30.845053 -3.087269 30.514330
v -30.845037 -3.087266 -29.485647
v 29.154932 -2.587266 -29.485609
v -30.845053 -2.587266 -29.485636
v -30.845068 -2.587269 30.514330
v 29.154902 -2.587269 30.514353
vn 0.0000 -1.0000 -0.0000
vn -0.0000 1.0000 0.0000
vn 1.0000 -0.0000 0.0000
vn -0.0000 -0.0000 1.0000
vn -1.0000 -0.0000 -0.0000
vn 0.0000 0.0000 -1.0000
usemtl Material.002
s 1
f 45//12 46//12 47//12 48//12
f 49//13 50//13 51//13 52//13
f 45//14 49//14 52//14 46//14
f 46//15 52//15 51//15 47//15
f 47//16 51//16 50//16 48//16
f 49//17 45//17 48//17 50//17
