# Blender v2.79 (sub 0) OBJ File: 'BlenderNatureAsset.blend'
# www.blender.org
mtllib duasPedras.mtl
o caillou1_Icosphere
v 1.945720 -0.107820 1.507435
v 2.211363 -0.105101 1.682162
v 1.853861 -0.107820 1.790151
v 1.558501 -0.125875 1.470390
v 1.853861 -0.107820 1.224718
v 2.186213 -0.107820 1.332708
v 1.998338 0.144426 1.790151
v 1.617458 0.131247 1.682162
v 1.685591 0.135460 1.260371
v 2.041428 0.145534 1.181809
v 2.330207 0.175530 1.512504
v 1.978355 0.290147 1.597785
v 1.891727 -0.107820 1.673610
v 2.088576 -0.107658 1.610136
v 2.033085 -0.107820 1.776313
v 2.252969 -0.105167 1.507435
v 2.087077 -0.107820 1.404734
v 1.766456 -0.107820 1.507435
v 1.660312 -0.107820 1.673611
v 1.891727 -0.107820 1.341259
v 1.684108 -0.122329 1.311491
v 2.033085 -0.107820 1.238557
v 2.335107 0.011614 1.611834
v 2.301363 0.008051 1.406509
v 1.918626 -0.012958 1.839789
v 2.152867 -0.001802 1.776315
v 1.533756 -0.010490 1.594928
v 1.682153 -0.012959 1.776315
v 1.738874 -0.009076 1.195971
v 1.524357 -0.037698 1.333703
v 2.141073 -0.003077 1.238555
v 1.948377 -0.003094 1.151019
v 2.214322 0.182517 1.675339
v 1.744165 0.130799 1.776313
v 1.613687 0.163202 1.490095
v 1.869343 0.171585 1.139858
v 2.201902 0.180596 1.342871
v 1.984532 0.288255 1.706595
v 2.161911 0.281702 1.540865
v 1.785066 0.262166 1.631729
v 1.814541 0.248803 1.381325
v 2.007866 0.255902 1.312347
vn 0.0009 -1.0000 0.0003
vn 0.0181 -0.9998 0.0047
vn 0.0000 -1.0000 0.0000
vn 0.7261 -0.6655 0.1731
vn 0.0668 -0.4980 0.8646
vn -0.7021 -0.5865 0.4039
vn -0.3256 -0.5934 -0.7361
vn 0.4609 -0.4752 -0.7496
vn 0.6559 -0.2708 0.7046
vn -0.2463 -0.3120 0.9176
vn -0.9597 -0.2739 0.0631
vn -0.1741 -0.4568 -0.8724
vn 0.7031 -0.2833 -0.6522
vn 0.3374 0.4969 0.7995
vn -0.4055 0.7307 0.5492
vn -0.4926 0.8322 -0.2547
vn 0.2588 0.7694 -0.5840
vn 0.4643 0.8232 -0.3266
vn 0.0006 -1.0000 -0.0008
vn 0.0179 -0.9998 0.0050
vn 0.0086 -0.9999 0.0119
vn 0.0156 -0.9999 0.0007
vn 0.0006 -1.0000 0.0008
vn 0.0776 -0.9957 0.0496
vn 0.0731 -0.9970 -0.0237
vn 0.0629 -0.9969 0.0474
vn 0.0793 -0.9960 0.0404
vn 0.9847 -0.0679 -0.1606
vn 0.8628 -0.4877 -0.1333
vn 0.7644 -0.5792 -0.2832
vn 0.2498 0.1739 0.9525
vn 0.2629 -0.2970 0.9180
vn 0.4174 -0.4716 0.7768
vn -0.7718 0.0666 0.6323
vn -0.6947 -0.4488 0.5622
vn -0.4011 -0.6288 0.6661
vn -0.5484 0.1633 -0.8201
vn -0.3957 -0.5550 -0.7317
vn -0.4727 -0.7896 -0.3913
vn 0.4126 -0.0702 -0.9082
vn 0.3805 -0.3923 -0.8375
vn 0.0610 -0.6106 -0.7896
vn 0.3950 0.3366 0.8548
vn 0.6507 0.1863 0.7361
vn 0.7712 0.3466 0.5340
vn -0.5771 0.2489 0.7778
vn -0.2576 0.1111 0.9598
vn -0.0690 0.3317 0.9409
vn -0.7579 0.5758 -0.3068
vn -0.9107 0.4129 -0.0102
vn -0.8816 0.4626 0.0943
vn 0.2435 0.0483 -0.9687
vn -0.2031 -0.1537 -0.9670
vn -0.5629 0.1543 -0.8120
vn 0.7787 0.2342 -0.5820
vn 0.7095 0.1554 -0.6874
vn 0.6767 0.1812 -0.7136
vn 0.0504 0.9986 0.0145
vn 0.4256 0.7995 0.4239
vn 0.5411 0.7636 0.3523
vn -0.1389 0.9900 0.0251
vn -0.3177 0.7448 0.5868
vn -0.0737 0.4957 0.8654
vn -0.1551 0.9854 -0.0708
vn -0.4350 0.8950 -0.0990
vn -0.5817 0.8004 0.1446
vn -0.0816 0.9885 -0.1270
vn -0.1527 0.9307 -0.3323
vn -0.4019 0.8418 -0.3604
vn 0.0090 0.9929 -0.1182
vn 0.3862 0.8508 -0.3564
vn 0.3770 0.7528 -0.5396
usemtl Material.004
s off
f 1//1 14//1 13//1
f 2//2 14//2 16//2
f 1//3 13//3 18//3
f 1//3 18//3 20//3
f 1//3 20//3 17//3
f 2//4 16//4 23//4
f 3//5 15//5 25//5
f 4//6 19//6 27//6
f 5//7 21//7 29//7
f 6//8 22//8 31//8
f 2//9 23//9 26//9
f 3//10 25//10 28//10
f 4//11 27//11 30//11
f 5//12 29//12 32//12
f 6//13 31//13 24//13
f 7//14 33//14 38//14
f 8//15 34//15 40//15
f 9//16 35//16 41//16
f 10//17 36//17 42//17
f 11//18 37//18 39//18
f 13//3 15//3 3//3
f 13//19 14//19 15//19
f 14//20 2//20 15//20
f 16//21 17//21 6//21
f 16//22 14//22 17//22
f 14//23 1//23 17//23
f 18//24 19//24 4//24
f 18//3 13//3 19//3
f 13//3 3//3 19//3
f 20//25 21//25 5//25
f 20//26 18//26 21//26
f 18//27 4//27 21//27
f 17//3 22//3 6//3
f 17//3 20//3 22//3
f 20//3 5//3 22//3
f 23//28 24//28 11//28
f 23//29 16//29 24//29
f 16//30 6//30 24//30
f 25//31 26//31 7//31
f 25//32 15//32 26//32
f 15//33 2//33 26//33
f 27//34 28//34 8//34
f 27//35 19//35 28//35
f 19//36 3//36 28//36
f 29//37 30//37 9//37
f 29//38 21//38 30//38
f 21//39 4//39 30//39
f 31//40 32//40 10//40
f 31//41 22//41 32//41
f 22//42 5//42 32//42
f 26//43 33//43 7//43
f 26//44 23//44 33//44
f 23//45 11//45 33//45
f 28//46 34//46 8//46
f 28//47 25//47 34//47
f 25//48 7//48 34//48
f 30//49 35//49 9//49
f 30//50 27//50 35//50
f 27//51 8//51 35//51
f 32//52 36//52 10//52
f 32//53 29//53 36//53
f 29//54 9//54 36//54
f 24//55 37//55 11//55
f 24//56 31//56 37//56
f 31//57 10//57 37//57
f 38//58 39//58 12//58
f 38//59 33//59 39//59
f 33//60 11//60 39//60
f 40//61 38//61 12//61
f 40//62 34//62 38//62
f 34//63 7//63 38//63
f 41//64 40//64 12//64
f 41//65 35//65 40//65
f 35//66 8//66 40//66
f 42//67 41//67 12//67
f 42//68 36//68 41//68
f 36//69 9//69 41//69
f 39//70 42//70 12//70
f 39//71 37//71 42//71
f 37//72 10//72 42//72
o caillou2_Icosphere.001
v 2.303555 -0.065207 1.116742
v 2.444951 -0.073385 1.228476
v 2.252339 -0.071637 1.285223
v 2.086803 -0.080255 1.068364
v 2.240544 -0.070526 0.924870
v 2.434300 -0.071210 0.981604
v 2.337852 0.019889 1.235936
v 2.130140 0.054733 1.143959
v 2.134999 0.061868 0.967380
v 2.325199 0.074767 0.926708
v 2.443819 0.058399 1.051139
v 2.298287 0.078709 1.109503
v 2.271697 -0.065301 1.233591
v 2.387318 -0.065105 1.191148
v 2.353431 -0.070226 1.302579
v 2.469831 -0.071706 1.105065
v 2.386439 -0.065207 1.042336
v 2.199747 -0.065234 1.113106
v 2.138382 -0.069230 1.184510
v 2.271760 -0.065287 0.996544
v 2.146211 -0.077120 0.980771
v 2.345804 -0.070425 0.934650
v 2.474773 -0.026187 1.138834
v 2.463152 -0.020553 1.002869
v 2.297436 -0.033626 1.293002
v 2.417134 -0.023740 1.270472
v 2.079488 -0.021157 1.124694
v 2.156883 -0.018228 1.208034
v 2.155367 -0.019018 0.926371
v 2.074773 -0.031946 1.007475
v 2.407527 -0.005135 0.929780
v 2.273989 -0.017080 0.902579
v 2.412194 0.045740 1.146434
v 2.197267 0.041093 1.163613
v 2.130017 0.072918 1.057049
v 2.211337 0.083844 0.916298
v 2.400998 0.084274 0.964480
v 2.314387 0.077401 1.172923
v 2.367500 0.090462 1.079853
v 2.201738 0.085468 1.106482
v 2.204102 0.105670 1.034562
v 2.293806 0.119745 1.008942
vn 0.0016 -1.0000 -0.0004
vn -0.1184 -0.9923 -0.0374
vn 0.0003 -1.0000 -0.0007
vn 0.0002 -1.0000 0.0006
vn 0.0005 -1.0000 0.0005
vn 0.9515 -0.2432 0.1885
vn -0.1692 -0.0010 0.9856
vn -0.7874 -0.4736 0.3946
vn -0.3759 -0.6011 -0.7053
vn 0.4151 -0.4514 -0.7899
vn 0.9032 0.1743 0.3922
vn -0.4510 0.3687 0.8128
vn -0.9831 -0.1747 0.0556
vn -0.1846 -0.2777 -0.9428
vn 0.7651 -0.1758 -0.6194
vn 0.3880 0.7481 0.5383
vn -0.0187 0.7903 0.6124
vn -0.4344 0.8907 -0.1339
vn 0.1115 0.8892 -0.4438
vn 0.4086 0.9100 0.0698
vn 0.0327 -0.9934 -0.1097
vn -0.0171 -0.9985 -0.0511
vn -0.0945 -0.9927 -0.0744
vn -0.0951 -0.9952 0.0234
vn -0.0786 -0.9969 0.0011
vn 0.0006 -1.0000 0.0007
vn 0.1149 -0.9924 0.0432
vn 0.0380 -0.9990 -0.0233
vn 0.0651 -0.9931 -0.0974
vn 0.0896 -0.9954 0.0337
vn 0.0870 -0.9947 0.0542
vn 0.1151 -0.9924 0.0426
vn -0.0431 -0.9970 0.0646
vn -0.0219 -0.9982 0.0566
vn -0.0061 -0.9971 0.0755
vn 0.9581 0.2776 -0.0704
vn 0.9953 -0.0436 -0.0869
vn 0.8823 -0.3953 -0.2555
vn 0.0758 0.7000 0.7101
vn 0.1318 0.4347 0.8909
vn 0.5943 -0.2987 0.7467
vn -0.7029 0.3062 0.6420
vn -0.7310 -0.0487 0.6806
vn -0.6599 -0.1039 0.7442
vn -0.7126 0.1661 -0.6816
vn -0.5660 -0.5142 -0.6444
vn -0.5919 -0.6843 -0.4259
vn 0.1842 0.1524 -0.9710
vn 0.2154 -0.2736 -0.9374
vn 0.0840 -0.4279 -0.8999
vn 0.2637 0.8460 0.4634
vn 0.7333 0.6052 0.3098
vn 0.7307 0.6017 0.3224
vn -0.0945 0.6371 0.7649
vn -0.3137 0.6967 0.6452
vn -0.1895 0.7796 0.5969
vn -0.8571 0.5034 -0.1096
vn -0.8832 0.4689 -0.0076
vn -0.8394 0.5317 0.1124
vn 0.1049 0.1976 -0.9747
vn -0.1968 0.0111 -0.9804
vn -0.5868 0.2437 -0.7722
vn 0.8636 0.3995 -0.3075
vn 0.7928 0.2700 -0.5464
vn 0.3799 0.3587 -0.8527
vn -0.1434 0.9880 0.0568
vn 0.3709 0.8668 0.3333
vn 0.4564 0.8496 0.2643
vn 0.0697 0.9976 0.0029
vn -0.2837 0.7679 0.5743
vn -0.2612 0.6626 0.7020
vn 0.0587 0.9606 0.2718
vn -0.3287 0.9120 0.2454
vn -0.2985 0.9341 0.1959
vn -0.0368 0.9247 0.3790
vn -0.2049 0.9602 -0.1898
vn -0.3870 0.9022 -0.1902
vn 0.0045 0.9259 0.3776
vn 0.3308 0.9426 0.0455
vn 0.1099 0.8891 -0.4443
usemtl Material.005
s off
f 43//73 56//73 55//73
f 44//74 56//74 58//74
f 43//75 55//75 60//75
f 43//76 60//76 62//76
f 43//77 62//77 59//77
f 44//78 58//78 65//78
f 45//79 57//79 67//79
f 46//80 61//80 69//80
f 47//81 63//81 71//81
f 48//82 64//82 73//82
f 44//83 65//83 68//83
f 45//84 67//84 70//84
f 46//85 69//85 72//85
f 47//86 71//86 74//86
f 48//87 73//87 66//87
f 49//88 75//88 80//88
f 50//89 76//89 82//89
f 51//90 77//90 83//90
f 52//91 78//91 84//91
f 53//92 79//92 81//92
f 55//93 57//93 45//93
f 55//94 56//94 57//94
f 56//95 44//95 57//95
f 58//96 59//96 48//96
f 58//97 56//97 59//97
f 56//98 43//98 59//98
f 60//99 61//99 46//99
f 60//100 55//100 61//100
f 55//101 45//101 61//101
f 62//102 63//102 47//102
f 62//103 60//103 63//103
f 60//104 46//104 63//104
f 59//105 64//105 48//105
f 59//106 62//106 64//106
f 62//107 47//107 64//107
f 65//108 66//108 53//108
f 65//109 58//109 66//109
f 58//110 48//110 66//110
f 67//111 68//111 49//111
f 67//112 57//112 68//112
f 57//113 44//113 68//113
f 69//114 70//114 50//114
f 69//115 61//115 70//115
f 61//116 45//116 70//116
f 71//117 72//117 51//117
f 71//118 63//118 72//118
f 63//119 46//119 72//119
f 73//120 74//120 52//120
f 73//121 64//121 74//121
f 64//122 47//122 74//122
f 68//123 75//123 49//123
f 68//124 65//124 75//124
f 65//125 53//125 75//125
f 70//126 76//126 50//126
f 70//127 67//127 76//127
f 67//128 49//128 76//128
f 72//129 77//129 51//129
f 72//130 69//130 77//130
f 69//131 50//131 77//131
f 74//132 78//132 52//132
f 74//133 71//133 78//133
f 71//134 51//134 78//134
f 66//135 79//135 53//135
f 66//136 73//136 79//136
f 73//137 52//137 79//137
f 80//138 81//138 54//138
f 80//139 75//139 81//139
f 75//140 53//140 81//140
f 82//141 80//141 54//141
f 82//142 76//142 80//142
f 76//143 49//143 80//143
f 83//144 82//144 54//144
f 83//145 77//145 82//145
f 77//146 50//146 82//146
f 84//147 83//147 54//147
f 84//148 78//148 83//148
f 78//149 51//149 83//149
f 81//150 84//150 54//150
f 81//151 79//151 84//151
f 79//152 52//152 84//152
