# Blender v2.79 (sub 0) OBJ File: 'carrinhox.blend'
# www.blender.org
mtllib carrinhox.mtl
o Cylinder
v 0.000000 -1.000000 0.875000
v 0.000000 3.000000 0.875000
v 0.024386 -1.000000 0.877402
v 0.024386 3.000000 0.877402
v 0.047835 -1.000000 0.884515
v 0.047835 3.000000 0.884515
v 0.069446 -1.000000 0.896066
v 0.069446 3.000000 0.896066
v 0.088388 -1.000000 0.911612
v 0.088388 3.000000 0.911612
v 0.103934 -1.000000 0.930554
v 0.103934 3.000000 0.930554
v 0.115485 -1.000000 0.952165
v 0.115485 3.000000 0.952165
v 0.122598 -1.000000 0.975614
v 0.122598 3.000000 0.975614
v 0.125000 -1.000000 1.000000
v 0.125000 3.000000 1.000000
v 0.122598 -1.000000 1.024386
v 0.122598 3.000000 1.024386
v 0.115485 -1.000000 1.047835
v 0.115485 3.000000 1.047835
v 0.103934 -1.000000 1.069446
v 0.103934 3.000000 1.069446
v 0.088388 -1.000000 1.088388
v 0.088388 3.000000 1.088388
v 0.069446 -1.000000 1.103934
v 0.069446 3.000000 1.103934
v 0.047835 -1.000000 1.115485
v 0.047835 3.000000 1.115485
v 0.024386 -1.000000 1.122598
v 0.024386 3.000000 1.122598
v -0.000000 -1.000000 1.125000
v -0.000000 3.000000 1.125000
v -0.024386 -1.000000 1.122598
v -0.024386 3.000000 1.122598
v -0.047835 -1.000000 1.115485
v -0.047835 3.000000 1.115485
v -0.069446 -1.000000 1.103934
v -0.069446 3.000000 1.103934
v -0.088388 -1.000000 1.088388
v -0.088388 3.000000 1.088388
v -0.103934 -1.000000 1.069446
v -0.103934 3.000000 1.069446
v -0.115485 -1.000000 1.047835
v -0.115485 3.000000 1.047835
v -0.122598 -1.000000 1.024386
v -0.122598 3.000000 1.024386
v -0.125000 -1.000000 1.000000
v -0.125000 3.000000 1.000000
v -0.122598 -1.000000 0.975614
v -0.122598 3.000000 0.975614
v -0.115485 -1.000000 0.952164
v -0.115485 3.000000 0.952164
v -0.103934 -1.000000 0.930554
v -0.103934 3.000000 0.930554
v -0.088388 -1.000000 0.911612
v -0.088388 3.000000 0.911612
v -0.069446 -1.000000 0.896066
v -0.069446 3.000000 0.896066
v -0.047835 -1.000000 0.884515
v -0.047835 3.000000 0.884515
v -0.024386 -1.000000 0.877402
v -0.024386 3.000000 0.877402
v -0.950000 -0.350000 0.900000
v -0.950000 0.350000 0.900000
v -0.950000 -0.350000 -0.100000
v -0.950000 0.350000 -0.100000
v 0.950000 -0.350000 0.900000
v 0.950000 0.350000 0.900000
v 0.950000 -0.350000 -0.100000
v 0.950000 0.350000 -0.100000
v -1.000000 -1.000000 1.000000
v -1.012870 1.014573 1.012870
v -0.673690 -0.449242 -0.495215
v -1.067244 1.107197 -1.068678
v 1.000000 -1.000000 1.000000
v 1.012870 1.014573 1.012870
v 0.584220 -0.546600 -0.584463
v 1.067206 1.107259 -1.068714
v -0.999402 -0.572292 0.999402
v -0.579223 0.137365 -0.184090
v 0.382335 -0.032031 -0.378711
v 0.999402 -0.572292 0.999402
vn 0.0980 0.0000 -0.9952
vn 0.2903 0.0000 -0.9569
vn 0.4714 0.0000 -0.8819
vn 0.6344 0.0000 -0.7730
vn 0.7730 0.0000 -0.6344
vn 0.8819 0.0000 -0.4714
vn 0.9569 0.0000 -0.2903
vn 0.9952 0.0000 -0.0980
vn 0.9952 0.0000 0.0980
vn 0.9569 0.0000 0.2903
vn 0.8819 0.0000 0.4714
vn 0.7730 0.0000 0.6344
vn 0.6344 0.0000 0.7730
vn 0.4714 0.0000 0.8819
vn 0.2903 0.0000 0.9569
vn 0.0980 0.0000 0.9952
vn -0.0980 0.0000 0.9952
vn -0.2903 0.0000 0.9569
vn -0.4714 0.0000 0.8819
vn -0.6344 0.0000 0.7730
vn -0.7730 0.0000 0.6344
vn -0.8819 0.0000 0.4714
vn -0.9569 0.0000 0.2903
vn -0.9952 0.0000 0.0980
vn -0.9952 0.0000 -0.0980
vn -0.9569 0.0000 -0.2903
vn -0.8819 0.0000 -0.4714
vn -0.7730 0.0000 -0.6344
vn -0.6344 0.0000 -0.7730
vn -0.4714 0.0000 -0.8819
vn 0.0000 1.0000 0.0000
vn -0.2903 0.0000 -0.9569
vn -0.0980 0.0000 -0.9952
vn 0.0000 -1.0000 -0.0000
vn -1.0000 0.0000 0.0000
vn 0.0000 0.0000 -1.0000
vn 1.0000 0.0000 0.0000
vn 0.0000 0.0000 1.0000
vn -0.9870 -0.1277 -0.0980
vn -0.0339 -0.3119 -0.9495
vn 0.9818 -0.1480 -0.1188
vn 0.0000 -0.0064 1.0000
vn -0.0369 -0.9504 -0.3088
vn 0.0828 0.5912 0.8023
vn 0.0798 0.8983 0.4322
vn -0.9347 0.2903 0.2051
vn 0.9552 0.2443 0.1670
vn 0.0000 0.0085 -1.0000
usemtl Material.004
s off
f 1//1 2//1 4//1 3//1
f 3//2 4//2 6//2 5//2
f 5//3 6//3 8//3 7//3
f 7//4 8//4 10//4 9//4
f 9//5 10//5 12//5 11//5
f 11//6 12//6 14//6 13//6
f 13//7 14//7 16//7 15//7
f 15//8 16//8 18//8 17//8
f 17//9 18//9 20//9 19//9
f 19//10 20//10 22//10 21//10
f 21//11 22//11 24//11 23//11
f 23//12 24//12 26//12 25//12
f 25//13 26//13 28//13 27//13
f 27//14 28//14 30//14 29//14
f 29//15 30//15 32//15 31//15
f 31//16 32//16 34//16 33//16
f 33//17 34//17 36//17 35//17
f 35//18 36//18 38//18 37//18
f 37//19 38//19 40//19 39//19
f 39//20 40//20 42//20 41//20
f 41//21 42//21 44//21 43//21
f 43//22 44//22 46//22 45//22
f 45//23 46//23 48//23 47//23
f 47//24 48//24 50//24 49//24
f 49//25 50//25 52//25 51//25
f 51//26 52//26 54//26 53//26
f 53//27 54//27 56//27 55//27
f 55//28 56//28 58//28 57//28
f 57//29 58//29 60//29 59//29
f 59//30 60//30 62//30 61//30
f 4//31 2//31 64//31 62//31 60//31 58//31 56//31 54//31 52//31 50//31 48//31 46//31 44//31 42//31 40//31 38//31 36//31 34//31 32//31 30//31 28//31 26//31 24//31 22//31 20//31 18//31 16//31 14//31 12//31 10//31 8//31 6//31
f 61//32 62//32 64//32 63//32
f 63//33 64//33 2//33 1//33
f 1//34 3//34 5//34 7//34 9//34 11//34 13//34 15//34 17//34 19//34 21//34 23//34 25//34 27//34 29//34 31//34 33//34 35//34 37//34 39//34 41//34 43//34 45//34 47//34 49//34 51//34 53//34 55//34 57//34 59//34 61//34 63//34
usemtl Material.003
f 65//35 66//35 68//35 67//35
f 67//36 68//36 72//36 71//36
f 71//37 72//37 70//37 69//37
f 69//38 70//38 66//38 65//38
f 67//34 71//34 69//34 65//34
f 72//31 68//31 66//31 70//31
usemtl Material.002
f 73//39 74//39 76//39 75//39
f 75//40 76//40 80//40 79//40
f 79//41 80//41 78//41 77//41
f 77//42 78//42 74//42 73//42
f 75//43 79//43 77//43 73//43
f 80//44 76//44 82//44 83//44
f 83//45 82//45 81//45 84//45
f 78//46 80//46 83//46 84//46
f 76//47 74//47 81//47 82//47
f 74//48 78//48 84//48 81//48
